<?xml version="1.0" encoding="UTF-8"?>
<svg id="Capa_1" data-name="Capa 1" xmlns="http://www.w3.org/2000/svg" viewBox="0 0 204.17 52.75">
  <defs>
    <style>
      .cls-1 {
        fill: #00aeef;
      }

      .cls-2 {
        fill: #fff;
      }

      .cls-3 {
        fill: #005dac;
      }
    </style>
  </defs>
  <path class="cls-2" d="M42.36,20.82c0,2.5-1.55,4.37-4.65,5.59-2.41.95-5.35,1.43-8.82,1.43h-14.22c-3.73,0-6.86-.43-9.41-1.29-3.5-1.18-5.25-3.05-5.25-5.63V7.1C0,4.62,1.78,2.79,5.36,1.6,8.18.71,11.29.26,14.71.26h5.65c1.52,0,2.28.68,2.28,2.04s-.76,2.06-2.28,2.06h-1.73c-.16,0-.26,0-.28-.02-.43-.01-.82-.02-1.16-.03-.34,0-.62-.02-.82-.02-6.74,0-10.11.93-10.11,2.8v13.8c0,1.87,2.82,2.81,8.47,2.81h14.16c1.35,0,2.79-.2,4.32-.61,1.92-.52,2.88-1.21,2.88-2.09v-2.93h-8.8c-1.16,0-2.11-.99-2.11-2.21s.95-2.21,2.11-2.21h10.58c.54-.06,1.3-.05,2.29-.05,1.46,0,2.2.59,2.2,1.77v5.45"/>
  <path class="cls-2" d="M79.32,20.96v-8.36c0-1.72-2.43-2.6-7.34-2.6h-9.71c-1.79,0-3.41.19-4.86.56-2.02.56-3.01,1.35-3.01,2.41v7.99c0,1.02,1.04,1.81,3.06,2.27,1.39.32,3.01.47,4.86.47h9.66c1.56,0,3.06-.19,4.45-.51,1.91-.51,2.89-1.25,2.89-2.23M85.33,20.96c0,2.51-1.5,4.32-4.57,5.43-2.14.88-5.03,1.35-8.62,1.35h-9.89c-3.3,0-6.25-.46-8.91-1.35-3.3-1.16-4.92-2.97-4.92-5.43v-7.99c0-2.41,1.62-4.27,4.86-5.52,2.43-.98,5.38-1.44,8.91-1.44h9.95c8.79,0,13.19,2.28,13.19,6.92v8.03Z"/>
  <path class="cls-2" d="M157.42,8.24c0,1.21-.93,1.81-2.66,1.81-.23,0-.58,0-1.04-.05h-1.1c-4.57,0-6.82.88-6.82,2.74v13.19c0,.88-.46,1.44-1.27,1.67-.35.09-1.21.14-2.6.14s-2.08-.6-2.08-1.81v-13.19c0-2.88,1.79-4.78,5.44-5.8,2.2-.65,5.49-.93,9.89-.93,1.5,0,2.25.74,2.25,2.23"/>
  <path class="cls-2" d="M192.41,20.96v-8.36c0-1.72-2.43-2.6-7.34-2.6h-9.71c-1.79,0-3.41.19-4.86.56-2.02.56-3.01,1.35-3.01,2.41v7.99c0,1.02,1.04,1.81,3.06,2.27,1.39.32,3.01.47,4.85.47h9.66c1.56,0,3.06-.19,4.45-.51,1.91-.51,2.89-1.25,2.89-2.23M198.43,20.96c0,2.51-1.5,4.32-4.57,5.43-2.14.88-5.03,1.35-8.62,1.35h-9.89c-3.3,0-6.25-.46-8.91-1.35-3.3-1.16-4.92-2.97-4.92-5.43v-7.99c0-2.41,1.62-4.27,4.86-5.52,2.43-.98,5.38-1.44,8.91-1.44h9.95c8.79,0,13.19,2.28,13.19,6.92v8.03Z"/>
  <path class="cls-2" d="M128.19,10.26v-3.76c0-1.58-2.72-2.41-8.17-2.41h-22.2v9.57h22.2c5.45,0,8.17-1.16,8.17-3.39M134.45,10.45c0,2.74-1.74,4.74-5.16,5.99-2.67.88-5.85,1.3-9.62,1.3h-21.85v8.08c0,.88-.41,1.44-1.33,1.67-.23.09-1.16.14-2.72.14-1.45,0-2.2-.6-2.2-1.81V1.77c0-1.16.75-1.77,2.2-1.77h26.19c3.54,0,6.55.42,9.04,1.16,3.65,1.11,5.45,2.79,5.45,4.97v4.32h0Z"/>
  <path class="cls-2" d="M67.59,43.83c-.27,1.11-.06,2.42.2,2.9.26.48,1.12.92,1.77.92s1.62-.31,2.1-.79c.48-.47,1.15-1.61,1.44-2.84.25-1.04.06-2.02-.2-2.5-.27-.48-1.07-1.12-1.72-1.12s-1.64.29-2.13.77c-.49.49-1.17,1.54-1.44,2.66M64.74,43.93c.43-1.8,1.53-3.29,2.68-4.29,1.16-1,2.64-1.2,4.27-1.2s2.9.69,3.57,1.67c.67.98,1.04,2.33.61,4.1-.31,1.29-.83,2.31-1.43,3.13-.59.82-1.41,1.34-2.27,1.8-.86.46-1.88.56-3,.56s-2.03-.2-2.68-.59c-.65-.4-1.4-1.02-1.66-1.88-.26-.86-.42-2.02-.11-3.3"/>
  <path class="cls-2" d="M53.31,49.38l2.38-10.77,4.94.02c.11,0,3.64-.18,3.46,2.81-.12,2.18-1.08,2.42-3,3.43.97,1.6,1.3,2.47,2.57,4.51h-3.22c-.36-1.02-1.89-3.91-1.9-3.91l-1.67-.02-.85,3.94-2.73-.02M57.42,43.51h1.89c1.76,0,2.59-2.76.77-2.79l-1.98-.04-.68,2.82Z"/>
  <polygon class="cls-2" points="46.36 38.64 54.12 38.68 53.71 40.66 48.7 40.7 48.25 42.61 52.91 42.62 52.48 44.68 47.71 44.68 47.15 47.41 52.1 47.32 51.8 49.41 43.95 49.32 46.36 38.64"/>
  <polygon class="cls-2" points="34.73 38.61 37.56 38.62 36.6 42.55 40.67 42.66 41.54 38.64 44.35 38.68 41.9 49.38 39.11 49.39 40.18 44.69 36.11 44.66 34.99 49.39 32.21 49.38 34.73 38.61"/>
  <polygon class="cls-2" points="75.96 49.36 78.53 49.36 79.24 46.56 76.67 46.56 75.96 49.36"/>
  <rect class="cls-1" x="86.27" y="34.53" width="23.84" height="18.23"/>
  <rect class="cls-1" x="115.03" y="34.53" width="23.84" height="18.23"/>
  <rect class="cls-3" x="143.98" y="34.52" width="23.84" height="18.23"/>
  <rect class="cls-2" x="173.53" y="34.53" width="23.84" height="18.23"/>
  <path class="cls-2" d="M10.04,44.26c.9-.17,1.38-.93,1.42-2.29-.1-1.61-.99-2.47-2.68-2.58-1.79,0-3.57.01-5.29.04v9.93h5.76c1.56.1,2.36-.78,2.39-2.62.07-1.29-.46-2.12-1.6-2.5ZM5.41,41.11c1.04.04,2.01.05,3.03.04.64.13.99.55,1.03,1.28,0,.8-.38,1.21-1.19,1.19-.93,0-1.87,0-2.86.02v-2.54ZM8.47,47.8c-1,0-2,0-3.06.02v-2.76c1.11.04,2.15.05,3.24.04.69.14,1.06.6,1.1,1.39,0,.88-.41,1.32-1.28,1.3Z"/>
  <path class="cls-2" d="M16.77,47.16c.01.8-.27,1.13-.88,1.07-.36,0-.71,0-1.05.02-.92.04-1.29-.66-1.09-2.1h4.73v-1.46c0-1.28-1.06-2.33-2.37-2.33h-1.75c-1.3,0-2.37,1.05-2.37,2.33v2.51c0,1.28,1.06,2.33,2.37,2.33h1.75c1.3,0,2.37-1.05,2.37-2.33v-.04h-1.71ZM15.33,43.62c1.06-.03,1.53.49,1.44,1.56-1.01-.02-2.02-.02-3.02.02-.12-1.07.41-1.59,1.58-1.59Z"/>
  <path class="cls-2" d="M26.39,42.43c-.88-.02-1.74-.02-2.61-.02-1.08.3-1.56.99-1.49,2.07h1.85c-.02-.64.43-.96,1.34-.95.75.02,1.18.26,1.26.71,0,.59.01,1.14.02,1.69-.4-.47-1.16-.75-2.26-.82-1.74.16-2.59.97-2.52,2.42.06,1.27.97,1.94,2.71,2.01.92.04,1.61-.23,2.11-.85.01.27.01.51.01.75h1.7c.01-1.84.01-3.67.01-5.49-.43-.95-1.15-1.46-2.14-1.52ZM26.13,48.3c-1.41.34-2.19.13-2.36-.6-.15-.58.1-1.01.74-1.29,1.16-.21,1.92,0,2.26.6.08.66-.13,1.08-.64,1.29Z"/>
  <path class="cls-2" d="M201.63,25.29c-1.4,0-2.54,1.14-2.54,2.54s1.14,2.54,2.54,2.54,2.54-1.14,2.54-2.54-1.14-2.54-2.54-2.54ZM201.63,29.99c-1.19,0-2.16-.97-2.16-2.16s.97-2.17,2.16-2.17,2.17.97,2.17,2.17-.97,2.16-2.17,2.16Z"/>
  <path class="cls-2" d="M202.48,28.23c-.08-.13-.17-.23-.27-.32-.04-.04-.11-.08-.19-.12.23-.03.41-.11.51-.22.11-.12.17-.26.17-.43,0-.13-.03-.25-.1-.36-.07-.11-.16-.19-.27-.23-.11-.04-.27-.06-.49-.06h-1.07v2.4h.32v-1.07h.37c.08,0,.14,0,.18,0,.05.01.1.03.14.06.05.03.1.08.16.16.06.07.13.18.23.33l.32.5h.4l-.42-.65ZM201.78,27.54h-.69v-.79h.76c.18,0,.31.04.39.11.08.07.12.17.12.28,0,.08-.02.15-.06.22-.04.06-.11.11-.19.14-.08.03-.2.04-.34.04Z"/>
</svg>